<?xml version="1.0" encoding="UTF-8"?>
<svg width="44px" height="44px" viewBox="0 0 44 44" version="1.1" xmlns="http://www.w3.org/2000/svg" xmlns:xlink="http://www.w3.org/1999/xlink">
    <title>Group</title>
    <g id="app" stroke="none" stroke-width="1" fill="none" fill-rule="evenodd" stroke-linecap="round" stroke-linejoin="round">
        <g id="menu" transform="translate(-32.000000, -538.000000)" stroke="#1C1C1B" stroke-width="2">
            <g id="Group-9" transform="translate(31.750000, 178.000000)">
                <g id="Group" transform="translate(0.250000, 360.000000)">
                    <g id="Group-13" transform="translate(12.000000, 14.538113)">
                        <polygon id="Path" points="12.75 7.46188663 8.25 4.46188663 8.25 10.4618866"></polygon>
                        <path d="M0,7.46188663 C0,10.251461 0.288200625,11.8881823 0.50728875,12.7293841 C0.626104094,13.1954885 0.962318853,13.5757366 1.41036563,13.7507351 C4.54882781,14.9568007 9.75,14.9237733 9.75,14.9237733 C9.75,14.9237733 14.9511159,14.9567998 18.0896063,13.7507426 C18.5376537,13.5757475 18.8738711,13.1955027 18.9926906,12.7294001 C19.2117863,11.8881991 19.5,10.2514685 19.5,7.46188663 C19.5,4.67230475 19.2117984,3.035591 18.9927112,2.19438913 C18.8738946,1.72828653 18.53768,1.34804041 18.0896344,1.17304288 C14.9511722,-0.0330274368 9.75,0 9.75,0 C9.75,0 4.54888406,-0.0330264993 1.41039375,1.17303069 C0.962346311,1.34802577 0.626128938,1.72827052 0.507309375,2.19437319 C0.288212812,3.03557413 0,4.67230475 0,7.46188663 Z" id="Path"></path>
                    </g>
                </g>
            </g>
        </g>
    </g>
</svg>
