<?xml version="1.0" encoding="UTF-8"?>
<svg width="45px" height="44px" viewBox="0 0 45 44" version="1.1" xmlns="http://www.w3.org/2000/svg" xmlns:xlink="http://www.w3.org/1999/xlink">
    <title>Group</title>
    <g id="app" stroke="none" stroke-width="1" fill="none" fill-rule="evenodd" stroke-linecap="round" stroke-linejoin="round">
        <g id="menu" transform="translate(-31.000000, -418.000000)" stroke="#1C1C1B" stroke-width="2">
            <g id="Group-9" transform="translate(31.750000, 178.000000)">
                <g id="Group" transform="translate(0.000000, 240.000000)">
                    <line x1="19" y1="31.003125" x2="25" y2="31.003125" id="Path"></line>
                    <path d="M15.2690359,19.75 C15.2665275,17.9534181 15.9813388,16.2301734 17.2547687,14.9628577 C18.5281985,13.6955419 20.2548635,12.9890325 22.0514125,13.0000574 C25.7629441,13.02778 28.7317103,16.1128122 28.7317103,19.8347359 L28.7317103,20.5 C28.7317103,23.8577153 29.4342025,25.8061497 30.0529291,26.8710756 C30.1885916,27.1026818 30.1901229,27.3891337 30.0569443,27.622177 C29.9237657,27.8552203 29.6761887,27.9993129 29.4077763,28 L14.5922172,28 C14.3237725,27.9993093 14.0761725,27.8551807 13.9430067,27.622093 C13.8098408,27.3890054 13.8114234,27.1025157 13.9471563,26.8709134 C14.5662138,25.8059519 15.2690313,23.8575447 15.2690313,20.5 L15.2690359,19.75 Z" id="Path"></path>
                </g>
            </g>
        </g>
    </g>
</svg>
