<?xml version="1.0" encoding="UTF-8"?>
<svg width="45px" height="44px" viewBox="0 0 45 44" version="1.1" xmlns="http://www.w3.org/2000/svg" xmlns:xlink="http://www.w3.org/1999/xlink">
    <title>Group</title>
    <g id="limAPP" stroke="none" stroke-width="1" fill="none" fill-rule="evenodd">
        <g id="documents" transform="translate(-165.000000, -603.000000)">
            <g id="tab-bar" transform="translate(0.000000, 595.000000)">
                <g id="Group" transform="translate(165.500000, 8.000000)">
                    <rect id="Rectangle" x="0" y="0" width="44" height="44"></rect>
                    <path d="M31,18.25 L31,28.8333334 C31,29.2015232 30.7015232,29.5 30.3333334,29.5 L13.75,29.5 C13.3357864,29.5 13,29.1642136 13,28.75 L13,16 C13,15.5857864 13.3357864,15.25 13.75,15.25 L18.7499997,15.25 C18.9122773,15.25 19.0701776,15.3026334 19.1999997,15.4 L21.8000003,17.35 C21.9298224,17.4473666 22.0877227,17.5 22.2500003,17.5 L30.25,17.5 C30.6642136,17.5 31,17.8357864 31,18.25 Z" id="Path" stroke="#FFFFFF" stroke-width="2" stroke-linecap="round" stroke-linejoin="round"></path>
                </g>
            </g>
        </g>
    </g>
</svg>