<?xml version="1.0" encoding="UTF-8"?>
<svg width="20px" height="20px" viewBox="0 0 20 20" version="1.1" xmlns="http://www.w3.org/2000/svg" xmlns:xlink="http://www.w3.org/1999/xlink">
    <title>Path</title>
    <g id="limAPP" stroke="none" stroke-width="1" fill="none" fill-rule="evenodd" stroke-linecap="round" stroke-linejoin="round">
        <g id="contact-&gt;-detail" transform="translate(-44.000000, -311.000000)" stroke="#1C1C1B" stroke-width="2">
            <g id="Group-11" transform="translate(-93.000000, -135.000000)">
                <g id="Group-27" transform="translate(124.750000, 430.000000)">
                    <g id="Group-26" transform="translate(0.250000, 0.000000)">
                        <g id="Group-5" transform="translate(0.000000, 4.000000)">
                            <g id="Group" transform="translate(10.000000, 10.000000)">
                                <path d="M8.66965219,11.7014325 C9.44762325,13.2919355 10.7368736,14.575328 12.3309028,15.3460481 C12.5681821,15.4584871 12.8471823,15.4373782 13.0648434,15.2905191 L15.4119375,13.7254247 C15.6228296,13.5847976 15.8904844,13.5602093 16.1234681,13.6600594 L20.5144369,15.5419031 C20.8208672,15.672068 21.0042783,15.9892 20.9642813,16.3197187 C20.6771513,18.5665101 18.765064,20.25 16.5,20.25 C9.45836944,20.25 3.75,14.5416306 3.75,7.5 C3.75,5.23493596 5.43348987,3.32284874 7.68028125,3.03571875 C8.01079679,2.99572105 8.32792686,3.17912731 8.458095,3.48555281 L10.3415803,7.88035313 C10.4405296,8.11123502 10.4173261,8.37632228 10.27977,8.5865025 L8.72010844,10.9696022 C8.5757055,11.187679 8.55654404,11.4656016 8.66965219,11.7014325 Z" id="Path"></path>
                            </g>
                        </g>
                    </g>
                </g>
            </g>
        </g>
    </g>
</svg>