<?xml version="1.0" encoding="UTF-8"?>
<svg width="24px" height="24px" viewBox="0 0 24 24" version="1.1" xmlns="http://www.w3.org/2000/svg" xmlns:xlink="http://www.w3.org/1999/xlink">
    <title>Group</title>
    <g id="limAPP" stroke="none" stroke-width="1" fill="none" fill-rule="evenodd">
        <g id="congresses-&gt;-detail---day-by-day" transform="translate(-293.000000, -342.000000)">
            <g id="Group-5" transform="translate(29.000000, 314.000000)">
                <g id="Group-9" transform="translate(20.000000, 1.000000)">
                    <g id="Group-6" transform="translate(234.000000, 16.000000)">
                        <g id="Group" transform="translate(10.000000, 11.000000)">
                            <rect id="Rectangle" x="0" y="0" width="24" height="24"></rect>
                            <path d="M15.4631136,20.25 L4.5,20.25 C4.08578644,20.25 3.75,19.9142136 3.75,19.5 L3.75,4.5 C3.75,4.08578644 4.08578644,3.75 4.5,3.75 L19.5,3.75 C19.9142136,3.75 20.25,4.08578644 20.25,4.5 L20.25,11.1990615" id="Path" stroke="#FFFFFF" stroke-width="2" stroke-linecap="round" stroke-linejoin="round"></path>
                            <g id="Group-2" transform="translate(18.000000, 15.000000)" stroke="#FFFFFF" stroke-linecap="round" stroke-linejoin="round" stroke-width="2">
                                <line x1="0" y1="2.253125" x2="4.5" y2="2.253125" id="Path"></line>
                                <line x1="2.253125" y1="0" x2="2.253125" y2="4.5" id="Path"></line>
                            </g>
                            <line x1="16.503125" y1="2.25" x2="16.503125" y2="5.25" id="Path" stroke="#FFFFFF" stroke-width="2" stroke-linecap="round" stroke-linejoin="round"></line>
                            <line x1="7.503125" y1="2.25" x2="7.503125" y2="5.25" id="Path" stroke="#FFFFFF" stroke-width="2" stroke-linecap="round" stroke-linejoin="round"></line>
                            <line x1="3.75" y1="8.253125" x2="20.25" y2="8.253125" id="Path" stroke="#FFFFFF" stroke-width="2" stroke-linecap="round" stroke-linejoin="round"></line>
                        </g>
                    </g>
                </g>
            </g>
        </g>
    </g>
</svg>