<?xml version="1.0" encoding="UTF-8"?>
<svg width="44px" height="44px" viewBox="0 0 44 44" version="1.1" xmlns="http://www.w3.org/2000/svg" xmlns:xlink="http://www.w3.org/1999/xlink">
    <title>Group</title>
    <g id="limAPP" stroke="none" stroke-width="1" fill="none" fill-rule="evenodd">
        <g id="home" transform="translate(-24.000000, -1412.000000)">
            <g id="tab-bar" transform="translate(0.000000, 1404.000000)">
                <g id="Group" transform="translate(24.000000, 8.000000)">
                    <rect id="Rectangle" x="0" y="0" width="44" height="44" rx="8"></rect>
                    <path d="M24.2494506,29.4993091 L24.2494506,24.9992153 C24.2494506,24.5850018 23.9136642,24.2492153 23.4994506,24.2492153 L20.4994506,24.2492153 C20.0852371,24.2492153 19.7494506,24.5850018 19.7494506,24.9992153 L19.7494506,29.4993091 C19.7494506,29.913486 19.4137213,30.2492573 18.9995444,30.2493091 L14.5000938,30.2499063 C14.3011651,30.2499063 14.1103756,30.1709198 13.9697031,30.0302648 C13.8290305,29.8896098 13.75,29.6988302 13.75,29.4999016 L13.75,20.8317391 C13.75,20.6204527 13.8391208,20.4189672 13.9954478,20.2768272 L21.4949322,13.4579425 C21.7809981,13.1978375 22.2179167,13.1978229 22.504,13.4579088 L30.0045156,20.2768234 C30.1608649,20.4189648 30.25,20.6204653 30.25,20.8317691 L30.25,29.4999063 C30.25,29.6988349 30.1709695,29.8896145 30.0302969,30.0302695 C29.8896244,30.1709245 29.6988349,30.2499063 29.4999063,30.2499063 L24.9993569,30.2493138 C24.5851781,30.249262 24.249448,29.9134878 24.2494506,29.4993091 Z" id="Path" stroke="#FFFFFF" stroke-width="2" stroke-linecap="round" stroke-linejoin="round"></path>
                </g>
            </g>
        </g>
    </g>
</svg>