<?xml version="1.0" encoding="UTF-8"?>
<svg width="20px" height="20px" viewBox="0 0 20 20" version="1.1" xmlns="http://www.w3.org/2000/svg" xmlns:xlink="http://www.w3.org/1999/xlink">
    <title>Shape</title>
    <g id="app" stroke="none" stroke-width="1" fill="none" fill-rule="evenodd">
        <g id="home" transform="translate(-69.000000, -639.000000)" fill="#E30513" fill-rule="nonzero" stroke="#FEF1F2" stroke-width="0.3">
            <g id="Group-17" transform="translate(32.000000, 481.538462)">
                <g id="Group-12-Copy-5" transform="translate(24.000000, 141.461538)">
                    <g id="Group-11" transform="translate(0.000000, 3.000000)">
                        <g id="Group-14" transform="translate(12.571429, 11.000000)">
                            <path d="M19.3768296,15.298218 C18.5620132,13.674087 15.0137584,13.5149058 13.1731222,13.5559787 C12.0862681,12.4525463 10.8094438,11.0501523 9.85800822,9.68466709 C10.8831076,6.67087088 11.1277735,4.65791943 10.5848986,3.69762707 C9.90228337,2.49028208 8.95977969,2.35348277 8.30530459,2.62769653 C7.16293846,3.1065651 6.39638288,5.06107755 7.22584567,7.739997 C7.43420779,8.41296821 7.80343951,9.13713862 8.26842464,9.87176652 C7.68362768,11.4936262 6.93992999,13.1996664 6.15704735,14.7383393 C4.29014382,15.3696224 2.17031488,16.4233699 1.05685725,18.1255299 C0.61871573,18.7952361 0.560274451,19.626111 0.900501617,20.3482466 C1.45787871,21.5310331 2.68130391,21.8499633 4.1458414,20.3955183 C4.67267728,19.8722645 5.24959883,19.1237248 5.86066315,18.170625 C6.29236989,17.4972752 6.73430505,16.7301864 7.1683648,15.9072139 C8.86719564,15.3939444 10.7979668,15.0863234 12.5869326,14.9970324 C13.5730872,15.9741703 14.3231716,16.6358323 14.4255519,16.7255492 C15.2180387,17.4367542 16.5028825,18.1631012 17.609233,18.0349613 C18.2435394,17.9614275 18.7817082,17.6276864 19.1655862,17.0697478 C19.7190737,16.2652297 19.5355383,15.6144984 19.3768296,15.298218 Z M4.6895806,17.3388984 C3.1626161,19.7412381 2.43058746,19.9310821 2.33420977,19.9453724 C2.3148574,19.9280064 2.26640444,19.8760501 2.20714681,19.7503234 C2.07816302,19.4766301 2.10135705,19.1487566 2.26765298,18.8946061 C2.80673416,18.0706399 3.77550521,17.3211538 5.08152613,16.700612 C4.95033339,16.92145 4.81942876,17.1346222 4.6895806,17.3388984 Z M8.86926053,3.93398562 C8.87487896,3.93161967 8.88136177,3.93043669 8.88866092,3.93043669 C8.96957592,3.93043669 9.1496058,4.07589538 9.32637026,4.3885322 C9.492234,4.68191017 9.53468436,5.75643066 8.87535917,8.02140326 C8.76471931,7.7825368 8.6731437,7.55010574 8.60370566,7.32576622 C7.97213648,5.28589025 8.53782117,4.07291428 8.86926053,3.93398562 Z M8.01463486,14.2106848 C8.46425334,13.2585786 8.89034165,12.2708886 9.27013793,11.2954541 C9.90871815,12.1272753 10.6170245,12.9389386 11.2991596,13.6707747 C10.1876708,13.7803656 9.06941111,13.9629697 8.01463486,14.2106848 Z M17.9731344,16.2730846 C17.7811954,16.5520776 17.5886801,16.6076302 17.4424089,16.6249016 C16.7309811,16.7090822 15.6985346,15.9470092 15.3938908,15.6744989 C15.3912977,15.6721803 15.3887526,15.6698617 15.3861114,15.6675903 C15.37353,15.6566123 15.0923684,15.4091811 14.6498089,14.9951396 C14.6654637,14.9959914 14.6811185,14.9968431 14.6967252,14.9976949 C16.9027034,15.1211029 17.9318846,15.621265 18.085455,15.9273245 C18.129202,16.0145808 18.0485271,16.1634938 17.9731344,16.2730846 Z" id="Shape"></path>
                        </g>
                    </g>
                </g>
            </g>
        </g>
    </g>
</svg>
