<svg xmlns="http://www.w3.org/2000/svg" width="192" height="192" viewBox="0 0 192 192" version="1.1">
	<path d="M 25.873 21.684 C 19.755 25.480, 20 22.387, 20 95.954 C 20 169.629, 19.814 167.301, 25.967 170.483 C 30.386 172.768, 161.614 172.768, 166.033 170.483 C 172.191 167.299, 172.003 169.655, 171.965 95.800 C 171.926 23.013, 172.128 25.700, 166.433 21.946 C 163.606 20.083, 161.062 20.014, 96 20.033 C 35.362 20.051, 28.233 20.219, 25.873 21.684 M 40.333 78.097 C 33.438 80.093, 29.680 89.242, 33.509 94.709 C 35.026 96.876, 44.479 101, 47.927 101 C 48.945 101, 50.783 101.813, 52.010 102.807 C 54.161 104.549, 54.177 104.680, 52.439 106.418 C 50.320 108.537, 43.984 108.077, 38.873 105.435 C 35.864 103.878, 35.702 103.911, 32.832 106.661 L 29.883 109.487 32.041 111.234 C 34.782 113.454, 43.287 116.002, 47.932 115.994 C 53.339 115.986, 58.394 114.274, 60.906 111.600 C 63.560 108.775, 64.709 102.193, 63.079 99.147 C 61.661 96.498, 56.153 93.661, 49.300 92.048 C 43.217 90.617, 41.118 88.768, 43 86.500 C 44.606 84.565, 47.481 84.604, 53.461 86.641 C 58.247 88.272, 58.290 88.267, 60.131 85.891 C 62.887 82.336, 62.043 80.688, 56.496 78.794 C 51.025 76.925, 45.242 76.676, 40.333 78.097 M 66 96.500 L 66 115 78.599 115 C 87.901 115, 92.052 114.595, 94.460 113.452 C 100.212 110.722, 101.766 103.675, 97.545 99.455 C 96.195 98.105, 94.555 97, 93.899 97 C 93.244 97, 93.880 95.913, 95.314 94.585 C 100.340 89.927, 100.070 83.233, 94.723 79.973 C 91.965 78.291, 89.661 78.007, 78.750 78.004 L 66 78 66 96.500 M 101 96.500 L 101 115 106.460 115 L 111.919 115 112.210 106.872 L 112.500 98.744 119 106.862 L 125.500 114.981 131.871 114.991 L 138.243 115 133.417 109.250 C 130.763 106.088, 127.308 101.993, 125.739 100.151 C 122.445 96.282, 122.054 97.220, 131.819 85.551 L 138.139 78 131.819 78.009 L 125.500 78.019 119 86.138 L 112.500 94.256 112.210 86.128 L 111.919 78 106.460 78 L 101 78 101 96.500 M 142 79 C 143.939 80.253, 145 80.253, 145 79 C 145 78.450, 143.988 78.007, 142.750 78.015 C 140.931 78.028, 140.787 78.216, 142 79 M 76 89.500 L 76 93 80.929 93 C 85.467 93, 89 91.305, 89 89.129 C 89 87.178, 86.101 86, 81.300 86 L 76 86 76 89.500 M 76 103.452 L 76 107 81.878 107 C 88.454 107, 91.240 105.195, 89.338 102.166 C 88.586 100.969, 86.562 100.416, 82.146 100.202 L 76 99.905 76 103.452" stroke="none" fill="black" fill-rule="evenodd"/>
</svg>