<?xml version="1.0" encoding="UTF-8"?>
<svg width="82px" height="21px" viewBox="0 0 82 21" version="1.1" xmlns="http://www.w3.org/2000/svg" xmlns:xlink="http://www.w3.org/1999/xlink">
    <title>Group</title>
    <g id="limAPP" stroke="none" stroke-width="1" fill="none" fill-rule="evenodd">
        <g id="login-00" transform="translate(-32.000000, -36.000000)">
            <g id="Group" transform="translate(32.000000, 36.000000)">
                <g id="logo" transform="translate(0.000000, 2.857143)">
                    <polygon id="Fill-1" fill="#E30613" points="11.2918872 0 9.50814077 1.98768958 11.4886785 3.77795122 13.2731676 1.79026164"></polygon>
                    <polygon id="Fill-2" fill="#E30613" points="3.176138 2.07187583 7.13572831 5.64792905 0 13.6009224 1.98053777 15.389694 9.1177513 7.43819069 10.9000125 5.45124612 8.91873213 3.66098448 4.95914181 0.0841862528"></polygon>
                    <polygon id="Fill-3" fill="#E30613" points="11.7511908 9.82542971 18.8869191 1.87392639 16.9056387 0.083664745 9.77288082 8.03591308 7.98690656 10.0221126 9.96818694 11.8123743 13.9285199 15.3884275 15.7107811 13.4014829"></polygon>
                    <polygon id="Fill-4" fill="#1C1C1B" points="24.3566787 1.86602927 26.9045696 1.86602927 26.9045696 11.2159184 31.519141 11.2159184 31.519141 13.3645304 24.3566787 13.3645304"></polygon>
                    <path d="M32.5108208,13.3646049 L34.8143934,13.3646049 L34.8143934,4.95044967 L32.5108208,4.95044967 L32.5108208,13.3646049 Z M32.5108208,4.04302616 L34.8143934,4.04302616 L34.8143934,1.86610377 L32.5108208,1.86610377 L32.5108208,4.04302616 Z" id="Fill-5" fill="#1C1C1B"></path>
                    <g id="Group-57" transform="translate(35.814910, 4.723370)" fill="#1C1C1B">
                        <path d="M0,0.22715388 L2.17435867,0.22715388 L2.17435867,1.36627583 L2.20629085,1.36627583 C2.80631879,0.504298004 3.68333983,0.000670509978 4.76977656,0.000670509978 C5.8235385,0.000670509978 6.76293868,0.390311308 7.21741529,1.39905632 C7.7060519,0.666710421 8.58158772,0.000670509978 9.74896881,0.000670509978 C11.5334578,0.000670509978 12.8144581,0.829867849 12.8144581,3.01200532 L12.8144581,8.64130909 L10.5123707,8.64130909 L10.5123707,3.87323814 C10.5123707,2.75125144 10.4136037,1.82073259 9.09992869,1.82073259 C7.80184844,1.82073259 7.55975796,2.89503858 7.55975796,3.95444435 L7.55975796,8.64130909 L5.25692796,8.64130909 L5.25692796,3.92017384 C5.25692796,2.94495432 5.31856449,1.82073259 3.86156595,1.82073259 C3.40486152,1.82073259 2.30357261,2.11352195 2.30357261,3.75850643 L2.30357261,8.64130909 L0,8.64130909 L0,0.22715388 Z" id="Fill-6"></path>
                    </g>
                </g>
                <text id="App" font-family="HelveticaNeue-Light, Helvetica Neue" font-size="17.1428571" font-weight="300" letter-spacing="0.171428578" fill="#888A8B">
                    <tspan x="50.6805556" y="17">App</tspan>
                </text>
            </g>
        </g>
    </g>
</svg>